<svg xmlns="http://www.w3.org/2000/svg" version="1.1" xmlns:xlink="http://www.w3.org/1999/xlink" width="1000" height="1000"><metadata><rdf:RDF xmlns:rdf="http://www.w3.org/1999/02/22-rdf-syntax-ns#" xmlns:dc="http://purl.org/dc/elements/1.1/"><rdf:Description><dc:creator>RealFaviconGenerator</dc:creator><dc:source>https://realfavicongenerator.net</dc:source></rdf:Description></rdf:RDF></metadata><g clip-path="url(#SvgjsClipPath1092)"><rect width="1000" height="1000" fill="#2c3e50"></rect><g transform="matrix(0.6510416666666666,0,0,0.6510416666666666,0,0)"><svg xmlns="http://www.w3.org/2000/svg" xml:space="preserve" viewBox="640 25 1536 1536" width="1536" height="1536"><path fill="#2c3e50" d="M787.68 1062.49c-3.13-2.436-6.231-4.91-9.392-7.303-16.036-12.141-19.25-28.449-15.28-47.063.62-2.904 1.547-5.742 3.057-9.569 11.947-23.247 23.361-45.444 34.19-67.924 1.68-3.488 1.583-8.452.773-12.42-6.061-29.699-11.396-59.608-12.505-89.841-1.06-28.893-.044-57.93 1.446-86.832 1.682-32.61 7.226-64.768 15.396-96.422 3.308-12.82 6.728-25.61 10.095-38.407-1.34-1.442-2.512-2.614-3.583-3.872-19.487-22.891-21.318-49.132-5.31-74.63 3.183-5.072 5.957-10.4 9.172-15.45 2.672-4.196 5.38-8.451 8.655-12.167 10.137-11.502 23.71-15.78 38.4-16.423 7.227-.317 11.092-3.515 14.874-9.314 13.093-20.07 25.858-40.47 40.48-59.406 38.724-50.142 84.128-93.551 135.956-130.098 29.463-20.776 60.67-38.581 93.188-54.128 66.152-31.628 135.956-50.049 208.783-56.965 33.515-3.183 67.123-3.38 100.8-.845 30.287 2.28 60.264 6.46 89.75 13.29 84.71 19.62 162.582 54.5 232.746 106.213 42.605 31.4 80.709 67.564 114.358 108.316 19.516 23.636 37.481 48.502 52.616 75.247 2.777 4.908 6.13 7.66 11.832 7.31 1.318-.081 2.66.148 3.986.28 20.651 2.039 36.673 11.003 46.112 30.267 2.776 5.665 6.269 10.993 9.622 16.357 11.352 18.157 14.047 49.58-4.66 69.907-4.838 5.256-5.64 9.988-3.088 16.045.514 1.221.858 2.519 1.23 3.796 14.285 49.123 22.09 99.345 24.165 150.374 2.039 50.137-3.299 99.727-14.013 148.708-1.014 4.635-.628 8.237 1.422 12.306 8.387 16.65 16.446 33.467 24.833 50.118 3.106 6.167 6.78 12.048 10.196 18.06.252 1.925.227 3.936.797 5.763 6.716 21.559 2.024 37.096-15.413 50.664-2.08 1.619-4.181 3.209-7.548 5.21-20.98 7.784-39.683 7.284-57.016-6.909-1.265 2.356-2.574 4.602-3.708 6.932-28.808 59.222-66.455 112.283-112.012 159.716-57.663 60.038-124.374 107.274-200.426 141.391-66.268 29.728-135.631 47.48-207.896 52.605-37.828 2.684-75.857 2.047-113.724-2.839-51.042-6.585-100.71-18.226-148.833-36.591-76.917-29.354-145.249-72.444-205.54-128.304-57.056-52.865-102.623-114.425-137.523-183.914-1.411-2.809-3.152-5.453-5.112-8.813-11.696 10.782-24.87 13.03-38.954 11.192-5.856-.764-11.6-2.386-17.395-3.618m747.738-398.583c.957-.882 2.058-1.65 2.849-2.662 15.733-20.109 31.46-40.223 47.098-60.406 1.955-2.522 3.404-5.437 5.381-8.647-2.272-1.477-3.795-2.673-5.491-3.527-3.494-1.759-7.08-3.334-10.99-5.153-1.691 2.51-3.138 4.273-4.17 6.251-7.677 14.722-15.487 29.381-22.817 44.276-4.819 9.79-8.907 19.94-14.158 30.42l.147 2.217c.267-.87.535-1.74 2.15-2.77m-100.164 387.675c19.559-19.082 39.205-38.076 58.66-57.264 44.128-43.523 88.067-87.24 132.264-130.693 35.633-35.033 71.574-69.752 107.302-104.69 32.874-32.148 65.648-64.398 98.461-96.608q57.061-56.009 114.106-112.034c5.468-5.37 11.088-10.609 16.257-16.256 3.791-4.141 7.476-8.705 4.328-15.513-2.724-.693-5.556-1.82-8.466-2.082-11.269-1.01-22.562-1.748-33.847-2.582-20.916-1.546-41.83-3.127-62.749-4.622-24.9-1.779-49.803-3.548-74.713-5.194-13.383-.885-24.773 4.192-34.781 12.614-5.091 4.284-9.963 8.859-14.663 13.572-55.066 55.223-110.059 110.52-165.116 165.75a68199 68199 0 0 1-117.326 117.408c-3.41 3.405-6.03 6.912-6.576 11.905-1.377 12.563-3.007 25.098-4.506 37.648-.817 6.837-1.575 13.681-2.386 20.747l36.76 13.737c-21.558 33.373-43.634 64.527-64.424 97.683l36.492-5.028c-4.676 16.23-9.036 30.868-13.062 45.598-1.465 5.362-2.135 10.941-3.887 16.3.192-.016.384-.033 1.872-.396m-87.515-145.633c7.674 5.861 15.323 11.755 23.04 17.559 1.84 1.384 3.952 3.575 5.864 3.498 8.438-.338 16.849-1.368 25.884-2.205-.713-3.416-1.056-5.666-1.655-7.847-8.098-29.494-16.391-58.937-24.217-88.503-1.52-5.745-3.995-10.342-8.13-14.476a258228 258228 0 0 1-191.45-191.663c-32.718-32.783-65.504-65.502-98.01-98.495-13.365-13.566-28.694-21.224-48.123-19.658-24.21 1.952-48.438 3.698-72.663 5.463-30.87 2.25-61.745 4.42-92.616 6.656-1.98.144-4.005.349-5.897.907-4.946 1.462-6.772 4.46-4.495 8.97 1.897 3.757 4.793 7.18 7.823 10.168 29.18 28.767 58.493 57.4 87.748 86.092 37.11 36.396 74.212 72.799 111.295 109.22 37.321 36.656 74.637 73.316 111.915 110.015a82914 82914 0 0 1 106.755 105.277c36.264 35.832 72.465 71.728 108.715 107.575 1.698 1.68 3.6 3.153 6.846 5.973-2.535-10.353-4.797-18.667-6.592-27.08-6.962-32.612-16.145-64.433-31.253-94.385-5.224-10.357-9.114-21.386-12.813-32.753.244-.24.488-.481 2.03-.308M911.811 605.185c-23.202-23.297-48.214-44.813-69.939-71.207-3.62 5.92-7.243 11.411-10.43 17.145-5.469 9.84-3.926 19.3 2.538 28.058 2.555 3.463 5.63 6.577 8.693 9.623 10.39 10.33 20.918 20.52 31.323 30.833 83.772 83.041 167.57 166.054 251.268 249.17 39.963 39.685 79.741 79.558 119.574 119.375 40.303 40.288 80.554 80.629 120.9 120.875 2.142 2.137 3.713 5.584 8.443 5.282v-25.294l20.482-5.268c-6.36-6.522-11.368-11.82-16.548-16.948-56.591-56.018-113.211-112.009-169.821-168.008-59.698-59.054-119.413-118.09-179.082-177.17-38.836-38.453-77.604-76.974-117.4-116.466m630.226 365.857-95.129 93.512.795 1.903h21.06c-1.077 12.727-7.998 23.094-8.563 36.745 2.943-2.315 4.563-3.36 5.91-4.683 30.206-29.652 60.523-59.192 90.524-89.05 33.061-32.906 65.733-66.202 98.746-99.157 35.614-35.552 71.399-70.934 107.16-106.34 64.178-63.537 128.401-127.03 192.586-190.56 10.186-10.083 20.266-20.272 30.4-30.407 7.421-7.422 10.425-16.541 7.867-26.514-2.11-8.223-6.965-15.382-12.493-22.115-7.875 8.478-14.847 16.516-22.377 23.993-27.906 27.708-56.053 55.171-84.004 82.833a287098 287098 0 0 0-211.663 209.682c-39.994 39.663-79.881 79.435-120.819 120.158m396.905-49.099c12.133 6.918 22.213 16.125 28.667 28.518 7.83 15.033 15.26 30.31 22.035 45.841 4.08 9.352 6.214 19.535 9.91 29.079 3.434 8.868 6.363 10.081 15.336 8.406 8.759-1.635 14.64-6.759 14.415-13.963-.116-3.717-2.191-7.523-3.931-11.015-8.303-16.66-17.517-32.905-25.04-49.903-9.924-22.427-22.642-42.307-43.927-55.422-7.541-4.647-11.81-11.397-15.348-19.049-20.108-43.49-40.269-86.955-60.403-130.433-4.988-10.77-9.947-21.554-15.335-33.234l-17.783 17.427c9.459 25.416 22.927 48.286 32.193 74.032-10.893-1.46-20.382-3.35-29.94-3.814-7.549-.367-11.196-3.697-13.74-10.445-3.823-10.144-8.558-19.943-13.48-31.203l-16.82 15.699 9.053 21.291c-8.24 0-15.112-.129-21.975.061-2.898.08-6.59-.138-8.507 1.468-5.206 4.36-9.657 9.622-15.76 15.923 3.994.399 5.827.578 7.659.765 10.584 1.081 21.264 3.615 31.729 2.915 16.756-1.12 22.6 8.62 26.784 21.957 1.296 4.13 2.006 7.752-.469 11.358-8.1 11.806-6.288 24.172-1.455 36.253 8.132 20.326 16.854 40.416 25.433 60.56 1.959 4.6 6.424 6.76 11.235 5.94 13.66-2.332 17.91-11.222 10.956-23.021-.838-1.422-2.228-2.54-2.954-4.002-7.685-15.47-15.384-30.935-22.789-46.54-.91-1.92-.124-4.647-.124-8.375 28.6 14.513 55.86 28.348 84.375 42.926m-1072.366 13.65c5.437-4.372 10.347-9.74 16.402-12.943 26.766-14.159 53.848-27.72 80.869-41.392 1.515-.766 3.503-.597 5.913-.96-.2 2.232.044 3.66-.479 4.703-8.321 16.589-16.539 33.236-25.253 49.618-2.838 5.336-6.332 10.36-5.075 16.605.78 3.88 11.84 10.435 16.37 10.204 5.686-.29 8.714-3.758 10.682-8.924 4.462-11.718 9.26-23.308 13.963-34.934 4.109-10.159 8.69-20.151 12.286-30.487 3.166-9.1 3.008-18.408-2.485-26.876-3.382-5.216-4.242-10.231-.582-15.717 1.456-2.181 2.435-4.756 3.249-7.275 2.576-7.977 7.755-11.15 16.287-11.574 14.747-.735 29.43-2.782 45.611-4.429-4.241-4.705-7.758-8.157-10.733-12.026-3.375-4.388-7.408-5.975-12.931-5.616-7.16.466-14.373.114-22.55.114 2.486-5.782 4.975-10.816 6.762-16.087.744-2.195.986-5.741-.264-7.212-3.946-4.647-8.706-8.603-13.994-13.627-5.352 12.13-9.875 22.812-14.82 33.297-1.315 2.788-3.606 6.693-5.993 7.132-11.661 2.146-23.506 3.293-37.404 5.063 6.061-13.236 11.288-24.95 16.774-36.543 5.666-11.973 11.584-23.827 17.534-36.023-6.338-6.238-12.087-11.897-18.28-17.99-1.408 2.368-2.172 3.434-2.717 4.603a66311 66311 0 0 0-35.386 76.006 63606 63606 0 0 0-38.66 83.288c-3.701 7.995-8.596 14.617-16.505 19.299-17.769 10.519-29.46 26.327-38.256 44.842-9.984 21.017-20.945 41.568-31.378 62.374-1.007 2.01-1.74 4.366-1.823 6.59-.295 7.816 5.121 13.417 14.291 15.212 9.682 1.894 12.397.456 15.983-8.816 4.166-10.772 5.412-22.487 11.035-32.84 3.482-6.41 5.964-13.358 9.034-20 5.857-12.671 11.069-25.747 22.523-36.66m428.94-381.163c-7.322 1.872-14.637 3.774-21.968 5.61-10.867 2.722-21.781 5.256-32.609 8.122-17.575 4.654-27.95 22.266-23.21 39.804 3.862 14.292 13.95 25.105 22.3 36.69 6.935 9.624 15.66 17.976 23.77 26.727 9.105 9.826 20.125 17.71 32.266 22.493 15.654 6.167 32.393 6.233 48.715.761 23.234-7.788 37.712-37.22 18.887-58.14-2.013-2.237-3.012-5.711-3.668-8.785-2.428-11.38-5.164-22.668-11.879-32.378-5.628-8.14-11.74-15.95-17.78-23.796-3.027-3.93-6.041-7.983-9.696-11.275-2.309-2.08-5.67-3.384-8.775-4.094-4.797-1.097-9.778-1.388-16.353-1.74m27.503-84.268c1.485 8.17 2.972 16.267 8.396 23.1 1.531 1.93 2.04 4.858 2.49 7.42.911 5.2 1.047 10.558 2.24 15.68 3.795 16.294 11.955 30.217 24.613 41.137 5.54 4.78 13.172 6.577 19.662 3.623 6.745-3.07 13.926-7.565 18.074-13.443 7.847-11.118 16.659-22.03 19.885-35.886.59-2.531 2.44-4.742 3.32-7.237 2.86-8.094 7.283-16.12 7.913-24.413 1.176-15.465 1.641-31.185-3.524-46.393-1.46-4.297-1.182-9.153-2.148-13.656-3.066-14.286-7.851-27.876-15.255-40.633-5.184-8.933-13.563-13.044-21.92-17.768-9.148-5.172-26.344-4.714-34.903 1.416-17.353 12.428-29.635 28.285-33.649 49.671-1.27 6.768-5.963 12.793-4.204 20.213 2.817 11.88 5.529 23.783 9.01 37.17m137.616 45.526c-4.5 2.511-6.957 6.337-9.366 11-6.523 12.63-8.712 26.316-11.753 39.857-2.776 12.362-3.327 24.222 5.916 34.52 1.53 1.706 3.171 3.703 3.717 5.832 2.1 8.192 8.588 11.54 15.44 14.212 5.216 2.033 10.703 3.614 16.212 4.604 15.482 2.784 28.902-3.628 36.966-17.162.677-1.136 1.4-2.245 2.123-3.353 6.458-9.913 13.014-19.764 19.353-29.752 4.833-7.614 1.883-16.24 2.798-24.371 1.297-11.524-4.49-20.275-10.872-28.807-1.58-2.111-4.016-3.61-5.46-5.788-7.978-12.024-20.284-13.387-33.041-13.73-3.857-.103-8.315-1.307-11.454.186-6.809 3.238-12.944 7.892-20.58 12.752m25.238 228.321c.707-3.182 2.073-6.38 1.994-9.543-.204-8.153 3.937-16.216.488-24.401 3.242-5.706-.153-10.342-2.835-14.744-6.52-10.698-18.253-14.81-29.896-10.981-7.934 2.61-14.502 7.499-21.567 11.74-11.497 6.902-12.542 17.315-13.116 28.054-.322 6.023.225 13.837 3.76 17.92 5.591 6.464 11.645 13.49 20.794 16.206 5.637 1.673 10.719 1.646 16.474.233 9.112-2.238 16.193-7.287 23.904-14.484m129.566-275.231c-3.79-3.173-3.73-7.504-3.688-11.896.074-7.714.02-15.429.02-23.143-5.796 5.445-10.014 10.942-13.852 16.692-4.43 6.64-10.227 10.127-18.38 9.764-4.803-.213-9.633.175-14.45.293 3.255 5.431 6.895 9.066 10.893 12.253 6.226 4.965 8.98 11.006 8.165 19.101-.615 6.117-.122 12.345-.122 18.524l1.976.764c3.336-4.697 7.056-9.172 9.924-14.138 4.924-8.525 12.313-11.404 21.666-11.197 3.812.085 7.643-.67 13.802-1.272-6.07-5.981-10.471-10.32-15.954-15.745m-213.457 199.175c9.873 2.067 18.194-2.784 26.448-6.68 3.106-1.465 6.488-5.72 6.867-9.033 2.277-19.898.834-29.995-20.111-35.503-17.26-4.539-31.206 3.723-35.405 20.783-3.187 12.95 1.06 21.225 13.541 26.61 2.413 1.041 4.682 2.413 8.66 3.823m-194.152-195.938c.11 4.969-.184 9.99.462 14.888.503 3.818 1.012 8.992 3.54 10.939 8.463 6.517 17.832 11.856 28.87 18.94-1.77-13.018-3.123-23.422-4.653-33.8-.274-1.865-.736-4.374-2.032-5.308-8.459-6.098-17.171-11.843-25.8-17.703l-2.009 1.251c.484 3.032.967 6.064 1.622 10.793m156.096 275.256c.068 1.31-.168 2.728.255 3.91 1.906 5.327 4.84 7.198 10.427 6.945 5.019-.227 8.365-2.86 9.205-7.244.823-4.297-1.691-9.309-5.81-11.582-5.087-2.807-9.754-.676-14.077 7.971"></path><path fill="#aab7b8" d="M2058.585 999.6c-4.018-5.607-7.693-11.488-10.8-17.655-8.386-16.651-16.445-33.467-24.832-50.118-2.05-4.069-2.436-7.671-1.422-12.306 10.714-48.98 16.052-98.57 14.013-148.708-2.074-51.03-9.88-101.251-24.165-150.374-.372-1.277-.716-2.575-1.23-3.796-2.552-6.057-1.75-10.789 3.087-16.045 18.708-20.327 16.013-51.75 4.661-69.907-3.353-5.364-6.846-10.692-9.622-16.357-9.44-19.264-25.461-28.228-46.112-30.268-1.327-.13-2.668-.36-3.986-.28-5.701.35-9.055-2.401-11.832-7.309-15.135-26.745-33.1-51.61-52.616-75.247-33.65-40.752-71.753-76.916-114.358-108.316-70.164-51.712-148.037-86.593-232.747-106.213-29.485-6.83-59.462-11.01-89.748-13.29-33.678-2.536-67.286-2.338-100.8.845-72.828 6.916-142.632 25.337-208.784 56.965-32.518 15.547-63.725 33.352-93.188 54.128-51.828 36.547-97.232 79.956-135.955 130.098-14.623 18.936-27.388 39.336-40.48 59.406-3.783 5.799-7.648 8.997-14.876 9.314-14.688.643-28.262 4.921-38.399 16.423-3.274 3.716-5.983 7.97-8.655 12.167-3.215 5.05-5.989 10.378-9.172 15.45-16.008 25.498-14.177 51.739 5.31 74.63 1.071 1.258 2.244 2.43 3.583 3.872-3.367 12.797-6.787 25.588-10.095 38.407-8.17 31.654-13.714 63.812-15.396 96.422-1.49 28.902-2.506 57.939-1.446 86.832 1.109 30.233 6.444 60.142 12.505 89.84.81 3.969.906 8.933-.774 12.42-10.828 22.48-22.242 44.678-34.17 67.15-1.975-2.003-3.664-4.048-4.452-6.395-11.03-32.866-18.328-66.608-23.797-100.806-5.689-35.574-8.452-71.356-7.642-107.344.87-38.578 3.939-76.905 11.035-115.004 8.506-45.67 21.21-89.977 38.684-132.906 24.636-60.522 57.665-116.115 98.536-167.188 21.296-26.612 44.362-51.465 69.153-74.734 36.305-34.077 76.224-63.373 118.994-88.86 31.55-18.802 64.363-35.013 98.625-48.15 43.896-16.831 88.977-29.393 135.51-36.73 25.64-4.042 51.273-7.529 77.273-7.968 16.627-.281 33.273-1.847 49.865-1.34 35.229 1.08 70.259 4.671 104.995 10.894 45.676 8.182 89.911 21.203 133.04 38.306 54.22 21.5 104.24 50.368 151.152 84.808 35.822 26.299 68.842 55.852 98.524 88.85 36.163 40.204 67.657 83.867 93.92 131.303 29.55 53.371 51.186 109.698 65.23 168.978 7.515 31.716 13.578 63.703 15.493 96.326 1.286 21.904 3.523 43.834 3.256 65.727-.46 37.566-3.978 74.915-10.71 112.009-5.658 31.176-13.208 61.74-24.183 92.044M787.611 1063.243c5.863.479 11.607 2.1 17.463 2.865 14.084 1.838 27.258-.41 38.954-11.192 1.96 3.36 3.7 6.004 5.112 8.813 34.9 69.49 80.467 131.05 137.524 183.914 60.29 55.86 128.622 98.95 205.54 128.304 48.121 18.365 97.79 30.006 148.832 36.591 37.867 4.886 75.896 5.523 113.724 2.84 72.265-5.127 141.628-22.878 207.896-52.606 76.052-34.117 142.763-81.353 200.426-141.39 45.557-47.434 83.204-100.495 112.012-159.717 1.134-2.33 2.443-4.576 3.708-6.932 17.333 14.193 36.037 14.693 56.535 7.373-2.794 8.948-5.814 18.113-10.063 26.668-22.149 44.589-49.01 86.168-79.969 125.189-23.473 29.586-49.514 56.725-77.19 82.268-30.654 28.293-64.124 53.05-99.475 75.185-46.499 29.115-95.886 52.173-148.059 69.133-39.593 12.87-79.913 22.467-121.304 27.887-39.758 5.206-79.629 7.077-119.536 4.99-48.204-2.52-95.766-9.946-142.495-22.605-54.618-14.797-106.318-36.41-155.765-63.794-37.43-20.73-72.41-45.018-105.085-72.479-28.067-23.588-54.012-49.47-78.285-77.033-21.613-24.543-41.222-50.556-59.33-77.737-18.694-28.06-34.423-57.77-48.72-88.259-1.115-2.378-1.692-5.009-2.45-8.276"></path><path fill="#aab7b8" d="M1344.908 906.9c4.5 10.723 8.389 21.752 13.613 32.109 15.108 29.952 24.291 61.773 31.253 94.386 1.795 8.412 4.057 16.726 6.592 27.08-3.246-2.82-5.148-4.295-6.846-5.974-36.25-35.847-72.45-71.743-108.715-107.575A82914 82914 0 0 0 1174.05 841.65c-37.278-36.699-74.594-73.359-111.915-110.014a220160 220160 0 0 0-111.295-109.22c-29.255-28.693-58.567-57.326-87.748-86.093-3.03-2.987-5.926-6.411-7.823-10.168-2.277-4.51-.451-7.508 4.495-8.97 1.892-.558 3.917-.763 5.897-.907 30.87-2.237 61.746-4.407 92.616-6.656 24.225-1.765 48.452-3.511 72.663-5.463 19.43-1.566 34.758 6.092 48.123 19.658 32.506 32.993 65.292 65.712 98.01 98.495a258228 258228 0 0 0 191.45 191.663c4.135 4.134 6.61 8.731 8.13 14.476 7.826 29.566 16.12 59.009 24.217 88.503.599 2.18.943 4.431 1.655 7.847-9.035.837-17.446 1.867-25.884 2.205-1.912.077-4.023-2.114-5.864-3.498-7.717-5.804-15.366-11.698-23.99-18.207-1.439-.624-1.927-.6-2.415-.576zM1434.1 1052.099c1.032-5.48 1.702-11.06 3.167-16.422 4.026-14.73 8.386-29.368 13.062-45.598l-36.492 5.028c20.79-33.156 42.866-64.31 64.425-97.683l-36.76-13.737c.81-7.066 1.568-13.91 2.385-20.747 1.5-12.55 3.129-25.085 4.506-37.648.547-4.993 3.165-8.5 6.576-11.905a68199 68199 0 0 0 117.326-117.407c55.057-55.232 110.05-110.528 165.116-165.75 4.7-4.714 9.572-9.289 14.663-13.573 10.008-8.422 21.398-13.499 34.781-12.614 24.91 1.646 49.812 3.415 74.713 5.194 20.92 1.495 41.833 3.076 62.749 4.622 11.285.834 22.578 1.572 33.847 2.582 2.91.262 5.742 1.389 8.466 2.082 3.148 6.808-.537 11.372-4.328 15.513-5.17 5.647-10.789 10.885-16.257 16.256a579187 579187 0 0 1-114.106 112.034c-32.813 32.21-65.587 64.46-98.461 96.608-35.728 34.938-71.669 69.657-107.302 104.69-44.197 43.453-88.136 87.17-132.264 130.693-19.455 19.188-39.101 38.182-59.274 57.482-.614.218-.538.3-.538.3M912.312 605.686c39.297 38.991 78.065 77.512 116.9 115.964 59.67 59.082 119.385 118.117 179.083 177.17 56.61 56 113.23 111.991 169.821 168.01 5.18 5.126 10.189 10.425 16.548 16.947l-20.482 5.268v25.294c-4.73.302-6.3-3.145-8.443-5.282-40.346-40.246-80.597-80.587-120.9-120.875-39.833-39.817-79.61-79.69-119.574-119.375-83.698-83.116-167.496-166.129-251.268-249.17-10.405-10.314-20.934-20.503-31.323-30.833-3.063-3.046-6.138-6.16-8.693-9.623-6.464-8.757-8.007-18.219-2.537-28.058 3.186-5.734 6.808-11.226 10.429-17.145 21.725 26.394 46.737 47.91 70.439 71.708M1542.54 970.542c40.437-40.223 80.324-79.995 120.318-119.658a287098 287098 0 0 1 211.663-209.682c27.95-27.662 56.098-55.125 84.004-82.833 7.53-7.477 14.502-15.515 22.377-23.993 5.528 6.733 10.383 13.892 12.493 22.115 2.558 9.973-.446 19.092-7.867 26.514-10.134 10.135-20.214 20.324-30.4 30.406-64.185 63.531-128.408 127.024-192.586 190.562-35.761 35.405-71.546 70.787-107.16 106.34-33.013 32.954-65.685 66.25-98.746 99.155-30 29.859-60.318 59.399-90.524 89.051-1.347 1.323-2.967 2.368-5.91 4.683.565-13.651 7.486-24.018 8.563-36.745h-21.06l-.795-1.903c31.71-31.17 63.42-62.342 95.63-94.012M1938.316 921.57a60965 60965 0 0 0-83.747-42.553c0 3.728-.787 6.455.124 8.376 7.405 15.604 15.104 31.07 22.79 46.539.725 1.462 2.115 2.58 2.953 4.002 6.954 11.799 2.705 20.689-10.956 23.02-4.81.822-9.276-1.339-11.235-5.938-8.579-20.145-17.3-40.235-25.432-60.56-4.834-12.082-6.647-24.448 1.454-36.254 2.475-3.606 1.765-7.228.47-11.358-4.185-13.337-10.03-23.077-26.785-21.957-10.465.7-21.145-1.834-31.729-2.915-1.832-.187-3.665-.366-7.658-.765 6.102-6.301 10.553-11.563 15.76-15.923 1.916-1.606 5.608-1.387 8.506-1.468 6.863-.19 13.736-.06 21.975-.06l-9.054-21.292 16.821-15.699c4.922 11.26 9.657 21.06 13.48 31.203 2.544 6.748 6.191 10.078 13.74 10.445 9.558.465 19.047 2.355 29.94 3.814-9.266-25.746-22.734-48.616-32.193-74.032l17.783-17.427c5.388 11.68 10.347 22.464 15.335 33.234 20.134 43.478 40.295 86.943 60.403 130.433 3.537 7.652 7.807 14.402 15.348 19.049 21.285 13.115 34.003 32.995 43.928 55.422 7.522 16.998 16.736 33.244 25.039 49.903 1.74 3.492 3.815 7.298 3.931 11.015.226 7.204-5.656 12.328-14.415 13.963-8.973 1.675-11.902.462-15.336-8.406-3.696-9.544-5.83-19.727-9.91-29.079-6.776-15.532-14.205-30.808-22.035-45.84-6.454-12.394-16.534-21.6-29.295-28.891m-28.218-40.988.622-.25c-.262-.094-.523-.189-.668-1.78-4.11-9.413-8.242-18.816-12.323-28.241-6.754-15.595-6.731-15.667-23.326-17.893-7.32-.982-14.685-1.633-22.52-2.488 5.91 21.922 9.823 26.87 27.726 36.078 2.656 1.366 5.202 2.967 7.924 4.178 7.476 3.325 15.018 6.5 22.565 10.396M866.07 936.092c-10.946 10.413-16.158 23.489-22.015 36.16-3.07 6.642-5.552 13.59-9.034 20-5.623 10.353-6.869 22.068-11.035 32.84-3.586 9.272-6.301 10.71-15.983 8.816-9.17-1.795-14.586-7.396-14.291-15.212.084-2.224.816-4.58 1.823-6.59 10.433-20.806 21.394-41.357 31.378-62.374 8.795-18.515 20.487-34.323 38.256-44.842 7.909-4.682 12.804-11.304 16.506-19.3a63606 63606 0 0 1 38.659-83.287 66311 66311 0 0 1 35.386-76.006c.545-1.169 1.31-2.235 2.718-4.604l18.279 17.99c-5.95 12.197-11.868 24.05-17.534 36.024-5.486 11.592-10.713 23.307-16.774 36.543 13.898-1.77 25.743-2.917 37.404-5.063 2.387-.439 4.678-4.344 5.993-7.132 4.945-10.485 9.468-21.168 14.82-33.297 5.288 5.024 10.048 8.98 13.994 13.627 1.25 1.47 1.008 5.017.264 7.212-1.787 5.271-4.276 10.305-6.762 16.087 8.177 0 15.39.352 22.55-.114 5.523-.36 9.556 1.228 12.93 5.616 2.976 3.87 6.493 7.321 10.734 12.026-16.182 1.647-30.864 3.694-45.611 4.429-8.532.424-13.711 3.597-16.287 11.574-.814 2.52-1.793 5.094-3.249 7.275-3.66 5.486-2.8 10.501.582 15.717 5.493 8.468 5.651 17.776 2.485 26.876-3.596 10.336-8.177 20.328-12.286 30.487-4.702 11.626-9.5 23.216-13.963 34.934-1.968 5.166-4.996 8.633-10.681 8.924-4.53.231-15.59-6.324-16.371-10.204-1.257-6.245 2.237-11.269 5.075-16.605 8.714-16.382 16.932-33.03 25.253-49.618.523-1.043.278-2.471.48-4.703-2.411.363-4.4.194-5.914.96-27.02 13.673-54.103 27.233-80.869 41.392-6.055 3.203-10.965 8.57-16.91 13.442m57.9-83.154c-3.668 8.948-8.879 17.298-12.018 28.833 16.192-8.026 30.473-15.028 44.648-22.237 1.628-.828 3.073-2.612 3.91-4.297 3.957-7.964 7.672-16.047 12.153-25.524-8.158.963-14.676 1.72-21.191 2.505-18.787 2.265-18.786 2.27-27.503 20.72"></path><path fill="#2c3e50" stroke="#2c3e50" stroke-width="3" d="M1296.354 554.288c5.74.492 10.72.783 15.517 1.88 3.105.71 6.466 2.014 8.775 4.094 3.655 3.292 6.669 7.345 9.695 11.275 6.041 7.846 12.153 15.656 17.781 23.796 6.715 9.71 9.45 20.997 11.88 32.378.655 3.074 1.654 6.548 3.667 8.785 18.825 20.92 4.347 50.352-18.887 58.14-16.322 5.472-33.061 5.406-48.715-.761-12.141-4.784-23.161-12.667-32.266-22.493-8.11-8.75-16.835-17.103-23.77-26.726-8.35-11.586-18.438-22.4-22.3-36.69-4.74-17.539 5.635-35.151 23.21-39.805 10.828-2.866 21.742-5.4 32.609-8.122 7.33-1.836 14.646-3.738 22.804-5.751m55.19 102.388c-12.162-29.608-23.524-59.56-36.9-89.156-23.832 6.494-46.53 12.571-69.148 18.931-4.652 1.308-9.008 3.673-14.402 6.13.296 1.139.593 2.278.955 4.749 0 .889.002 1.778-1.409 2.905-4.2 2.933-3.209 6.615-.135 8.988 7.528 5.813 10.193 14.443 14.324 22.293 2.149 4.082 4.533 8.184 7.545 11.636 5.172 5.929 11 11.28 16.407 17.008 9.766 10.344 19.99 19.05 34.578 23.108 14.292 3.976 27.058 2.758 40.575-1.946 7.509-2.613 10.882-7.662 14.012-14.576-2.143-1.115-3.813-1.983-5.586-4.149.007-.867.013-1.734.555-3.034-.248-.526-.496-1.05-1.372-2.887zM1322.658 469.414c-3.118-12.64-5.83-24.544-8.647-36.423-1.76-7.42 2.934-13.445 4.204-20.213 4.014-21.386 16.296-37.243 33.649-49.671 8.559-6.13 25.755-6.588 34.903-1.416 8.357 4.724 16.736 8.835 21.92 17.768 7.404 12.757 12.19 26.347 15.255 40.633.966 4.503.689 9.359 2.148 13.656 5.165 15.208 4.7 30.928 3.524 46.393-.63 8.294-5.053 16.32-7.913 24.413-.88 2.495-2.73 4.706-3.32 7.237-3.226 13.856-12.038 24.768-19.885 35.886-4.148 5.878-11.33 10.373-18.074 13.443-6.49 2.954-14.121 1.157-19.662-3.623-12.658-10.92-20.818-24.843-24.613-41.138-1.193-5.12-1.329-10.48-2.24-15.679-.45-2.562-.959-5.49-2.49-7.42-5.424-6.833-6.91-14.93-8.759-23.846m61.3 68.535s-.05-.048 1.342-.112c4.25-3.63 8.542-7.214 12.742-10.901 4.929-4.327 8.113-9.321 8.192-16.367.043-3.813 1.293-8.137 3.402-11.291 4.407-6.592 5.604-13.693 7.038-21.315 3.702-19.666-.854-38.088-5.965-56.599-1.298-4.705-4.149-9.185-4.52-13.908-1.505-19.15-16.26-33.991-37.158-35.694-.34-.072-.681-.144-1.468-.753-.53.26-1.06.521-2.5 1.518-.991 1.176-1.982 2.352-4.462 3.502-8.306 1.826-14.243 7.142-18.465 14.002-5.015 8.147-9.604 16.633-13.524 25.355-4.074 9.064-4.295 19.141-1.325 28.284 2.954 9.092 6.305 17.983 8.334 27.399 1.155 5.359 4.45 10.22 6.072 15.523 3.57 11.66 6.339 23.574 10.147 35.15 1.834 5.576 5.391 10.57 7.958 15.927 1.715 3.58 4.548 4.57 8.282 5.26 0 0 .044.918.023 2.145.624.976 1.247 1.953 2.4 4.1l3.208 6.757c2.51-4.698 4.438-8.307 7.236-12.39.544-.439.863-1.004 1.015-2.613 0 0 .131-.91.984-1.367.534-.418.864-.96 1.013-1.612zM1461.249 515.294c7.023-4.467 13.158-9.12 19.967-12.359 3.139-1.493 7.597-.289 11.454-.185 12.757.342 25.063 1.705 33.04 13.73 1.445 2.177 3.882 3.676 5.461 5.787 6.383 8.532 12.17 17.283 10.872 28.807-.915 8.13 2.035 16.757-2.798 24.37-6.34 9.99-12.895 19.84-19.353 29.753-.722 1.108-1.446 2.217-2.123 3.353-8.064 13.534-21.484 19.946-36.966 17.162-5.509-.99-10.996-2.57-16.212-4.604-6.852-2.671-13.34-6.02-15.44-14.212-.546-2.13-2.186-4.126-3.717-5.831-9.243-10.3-8.692-22.159-5.916-34.52 3.04-13.542 5.23-27.228 11.753-39.857 2.41-4.664 4.866-8.49 9.978-11.394m34.748 96.707s-.034-.029 1.32-.193c9.846-8.428 18.195-18.364 24.636-29.391 4.185-7.167 6.668-15.865 7.802-24.165 2.446-17.912-7.671-30.7-19.886-42.06-1.56-1.452-3.885-3.065-7.385-.207-1.494.006-2.989.012-5.396-1.01-12.471.191-23.162 5.107-31.832 13.62-8.033 7.888-9.57 19.202-13.088 29.38-.369 1.066.676 2.545.718 3.844.095 2.893.377 5.866-.131 8.677-3.877 21.44 3.635 36.257 27.908 44.007 3.837 1.224 7.559 2.82 12.361-.324.36-.05.72-.1 1.932-.604a2.9 2.9 0 0 0 1.041-1.574zM1485.381 744.61c-7.218 6.595-14.299 11.644-23.411 13.882-5.755 1.413-10.837 1.44-16.474-.233-9.15-2.715-15.203-9.742-20.795-16.205-3.534-4.084-4.081-11.898-3.76-17.921.575-10.739 1.62-21.152 13.117-28.054 7.065-4.241 13.633-9.13 21.567-11.74 11.643-3.83 23.377.283 29.896 10.981 2.682 4.402 6.077 9.038 2.835 14.744 3.449 8.185-.692 16.248-.488 24.4.08 3.163-1.287 6.362-2.487 10.146m-30.329-.588c9.15-7.053 17.8-14.607 25.043-24.142-4.963-8.514-7.75-17.883-16.364-24.083-4.359 3.027-8.511 5.688-12.41 8.68-4.466 3.424-8.996 6.86-12.898 10.875-1.516 1.56-2.545 5.155-1.813 7.064 2.957 7.717 6.484 15.24 10.213 22.626 2.026 4.013 4.803 2.251 8.229-1.02z"></path><path fill="#339c53" d="M1615.98 469.32c4.943 4.882 9.345 9.22 15.414 15.202-6.16.601-9.99 1.357-13.802 1.272-9.353-.207-16.742 2.672-21.666 11.197-2.868 4.966-6.588 9.441-9.924 14.138l-1.976-.764c0-6.179-.493-12.407.122-18.524.815-8.095-1.94-14.136-8.165-19.1-3.998-3.188-7.638-6.823-10.894-12.254 4.818-.118 9.648-.506 14.451-.293 8.153.363 13.95-3.124 18.38-9.764 3.838-5.75 8.056-11.247 13.852-16.692 0 7.714.054 15.43-.02 23.143-.042 4.392-.103 8.723 4.229 12.44"></path><path fill="#2c3e50" stroke="#2c3e50" stroke-width="3" d="M1401.162 667.857c-3.157-1.315-5.426-2.687-7.839-3.728-12.482-5.385-16.728-13.66-13.54-26.61 4.198-17.06 18.144-25.322 35.404-20.783 20.945 5.508 22.388 15.605 20.111 35.503-.379 3.313-3.761 7.568-6.867 9.034-8.254 3.895-16.575 8.746-27.27 6.584m3.706-9.964 6.503 5.594c2.915-7.448 5.955-14.036 7.964-20.924.81-2.775.38-6.969-1.274-9.18-3.248-4.344-7.749-7.753-12.694-12.467-2.29 3.88-4.062 6.518-5.477 9.335-8.462 16.84-8.463 14.073 4.978 27.642z"></path><path fill="#339c53" d="M1207.745 471.165c-.569-3.88-1.052-6.912-1.536-9.944l2.008-1.251c8.63 5.86 17.342 11.605 25.801 17.703 1.296.934 1.758 3.443 2.032 5.308 1.53 10.378 2.883 20.782 4.653 33.8-11.038-7.084-20.407-12.423-28.87-18.94-2.528-1.947-3.037-7.12-3.54-10.939-.646-4.898-.351-9.92-.548-15.737M1533.954 663.969c4.416-9.99 8.504-20.14 13.323-29.93 7.33-14.895 15.14-29.554 22.817-44.276 1.032-1.978 2.479-3.74 4.17-6.251 3.91 1.819 7.496 3.394 10.99 5.153 1.696.854 3.22 2.05 5.491 3.527-1.977 3.21-3.426 6.125-5.381 8.647-15.638 20.183-31.365 40.297-47.098 60.406-.791 1.011-1.892 1.78-3.55 2.715-.702.054-.762.009-.762.009M1363.985 746.472c4.265-7.849 8.932-9.98 14.018-7.173 4.12 2.273 6.634 7.285 5.811 11.582-.84 4.383-4.186 7.017-9.205 7.244-5.586.253-8.521-1.618-10.427-6.945-.423-1.182-.187-2.6-.197-4.708"></path><path fill="#2c3e50" d="M1910.067 879.922c-7.516-3.235-15.058-6.41-22.534-9.735-2.722-1.21-5.268-2.812-7.924-4.178-17.903-9.208-21.815-14.156-27.726-36.078 7.835.855 15.2 1.506 22.52 2.488 16.595 2.226 16.572 2.298 23.326 17.893 4.08 9.425 8.213 18.828 12.3 28.96-.024.718.038.65.038.65M924.267 852.248c8.419-17.76 8.418-17.765 27.205-20.03 6.515-.785 13.033-1.542 21.191-2.505-4.48 9.477-8.196 17.56-12.153 25.524-.837 1.685-2.282 3.47-3.91 4.297-14.175 7.21-28.456 14.211-44.648 22.237 3.14-11.535 8.35-19.885 12.315-29.523"></path><path fill="#339c53" d="M1232.052 599.997c-.001-.889-.002-1.778.006-3.999-.014-2.22-.039-3.108-.063-3.996 4.493-1.878 8.849-4.243 13.501-5.55 22.619-6.361 45.316-12.438 69.148-18.932 13.376 29.597 24.738 59.548 37.207 90.32a65 65 0 0 1 .529 2.156c-.007.867-.013 1.734-.211 3.956-1.19 3.062-2.53 4.657-3.124 6.494-2.3 7.119-7.562 8.195-14.089 7.736-5.614-.395-11.327-.655-16.901-.066-11.753 1.242-19.957-2.21-27.897-12.106-13.423-16.728-29.49-31.313-44.047-47.165-5.274-5.743-9.406-12.534-14.06-18.848m77.947-22.06s.082-.056-.304-.784c-.663.213-1.326.426-3.23.658-.823.085-1.646.169-3.677.27-.993.598-1.987 1.196-3.888 1.809 0 0-.899.118-2.116.155-1.02.588-2.038 1.176-4.613 1.803-5.394 1.424-10.789 2.85-17.372 4.267-.96.598-1.92 1.196-2.822 1.813 0 0-.069-.047-1.691-.026-9.07 1.518-18.004 3.448-27.116 8.343 1.942 2.673 3.217 4.906 4.935 6.717 14.404 15.192 28.921 30.278 43.328 45.468 3.188 3.36 6.27 6.862 9.043 10.567 2.63 3.515 5.764 5.101 10.184 5.007 8.316-.177 16.643.185 24.958.003 8.094-.177 9.42-2.323 6.464-9.817-4.994-12.657-9.933-25.338-15.14-37.907-3.404-8.218-7.241-16.257-10.946-25.334 0 0-.14-.949-.423-1.89-.335-.6-.821-1.026-1.476-2.173 0 0-.122-.884-.439-1.85-.49-.454-.982-.909-1.49-2.592-.091-.814-.182-1.628-.569-3.368-.332-.607-.835-.992-1.6-1.138"></path><path fill="#2c3e50" stroke="#2c3e50" stroke-width="1.5" d="M1231.346 600.116c5.359 6.195 9.491 12.986 14.765 18.73 14.557 15.85 30.624 30.436 44.047 47.164 7.94 9.895 16.144 13.348 27.897 12.106 5.574-.589 11.287-.33 16.901.066 6.527.46 11.789-.617 14.09-7.736.593-1.837 1.934-3.432 3.174-5.845 1.913.162 3.583 1.03 5.726 2.145-3.13 6.914-6.503 11.963-14.012 14.576-13.517 4.704-26.283 5.922-40.575 1.946-14.588-4.058-24.812-12.764-34.578-23.108-5.408-5.729-11.235-11.08-16.407-17.008-3.012-3.452-5.396-7.554-7.545-11.636-4.131-7.85-6.796-16.48-14.324-22.293-3.074-2.373-4.065-6.055.84-9.107z"></path><path fill="#339c53" d="M1362.09 376.055c.99-1.176 1.982-2.352 3.944-3.901 1.305-.451 1.64-.53 1.975-.607.34.071.681.143 1.753.867a63 63 0 0 1 4.572 5.888c1.359.94 2.448 1.343 4.143 2.026 6.243 6.075 11.88 11.868 17.517 18.443.701 3.61 1.403 6.442 2.138 9.704.032.432-.013 1.297-.055 2.13.66 4.347 1.362 7.86 2.522 11.736.707 1.482.956 2.601.717 4.156-.09 2.797.306 5.156.796 8.202.646 2.903 1.199 5.12 1.253 7.77-.11 2.802.278 5.172.754 8.23.628 2.911 1.167 5.135 1.2 7.834-.09 3.48.324 6.484.782 10.218.64 3.565 1.236 6.399 1.087 9.236-2.24.013-3.734.022-5.615-.348-5.824 7.289-11.225 14.983-16.717 22.613-2.235 3.106-4.666 6.071-7.82 10.15-2.8-6.185-5.082-10.915-7.106-15.753-6.875-16.434-13.618-32.923-20.555-49.33-.58-1.374-2.24-2.29-3.417-3.886-.257-1.001-.494-1.534-.731-2.068-.243.17-.707.473-.698.489.434.712.909 1.4 1.416 2.874 2.054 8.261 4.071 15.738 6.067 23.934.07 3.565-1.209 5.217-4.123 5.404.005-.038.05.02-.13-.434-.544-1.024-1.048-1.417-1.746-2.339-.089-2.124-.122-3.542-.298-5.472-.677-.954-1.212-1.395-1.794-2.45-.06-1.43-.073-2.249-.064-3.707-.622-1.655-1.266-2.67-1.94-4.132-.03-.448-.006-1.345-.008-1.964-.626-1.604-1.25-2.589-1.924-4.2a88 88 0 0 1-.093-3.764c-.625-1.62-1.256-2.615-1.93-4.066-.041-.458-.036-1.376-.043-1.991-.635-1.59-1.262-2.566-2.203-4.232-2.988-5.698-1.678-10.3 1.113-14.754 6.851-10.933 13.77-21.823 20.504-32.827 1.868-3.054 3.186-6.444 4.756-9.68"></path><path fill="#2c3e50" stroke="#2c3e50" stroke-width="1.5" d="M1361.345 376.042c-.826 3.248-2.144 6.638-4.012 9.692-6.734 11.004-13.653 21.894-20.504 32.827-2.79 4.454-4.1 9.056-1.094 15.36.952 2.278 1.571 3.26 2.191 4.24 0 0-.005.92.06 1.989.677 2.073 1.289 3.076 1.9 4.08.017.837.034 1.674.115 3.746.68 2.227 1.295 3.219 1.91 4.211 0 0-.025.897.032 1.965.67 2.096 1.281 3.124 1.893 4.152.012.818.025 1.637.27 3.552.74 1.556 1.245 2.017 1.75 2.477.035 1.418.068 2.836.328 5.419.59 1.745 1.099 2.135 1.754 2.334 0 0-.044-.058-.047.779.912 4.673 1.639 8.566 2.773 12.337 5.705 18.957 11.517 37.881 17.29 56.817-3.608.22-6.441-.77-8.156-4.35-2.567-5.358-6.124-10.35-7.958-15.927-3.808-11.576-6.577-23.49-10.147-35.15-1.623-5.303-4.917-10.164-6.072-15.523-2.03-9.416-5.38-18.307-8.334-27.4-2.97-9.142-2.749-19.219 1.325-28.283 3.92-8.722 8.509-17.208 13.524-25.355 4.222-6.86 10.159-12.176 19.21-13.989zM1398.12 409.772s.044-.865.02-2.08c-.731-4.043-1.438-6.872-2.145-9.702-5.637-5.794-11.275-11.587-17.813-18.167-1.972-1.21-3.044-1.634-4.116-2.058-1.191-1.566-2.382-3.132-3.792-5.248 19.655.948 34.41 15.789 35.915 34.94.371 4.722 3.222 9.202 4.52 13.907 5.11 18.511 9.667 36.933 5.965 56.599-1.434 7.622-2.631 14.723-7.038 21.315-2.11 3.154-3.359 7.478-3.402 11.29-.079 7.047-3.263 12.041-8.192 16.368-4.2 3.687-8.491 7.271-13.36 10.22 4.353-10.833 9.86-20.765 14.134-31.201 3.704-9.046 10.486-17.235 9.118-27.972-.597-2.833-1.194-5.667-1.822-10.065-.116-4.33-.201-7.094-.286-9.86-.54-2.224-1.079-4.448-1.69-8.158-.138-3.613-.205-5.738-.271-7.864-.554-2.217-1.107-4.434-1.736-8.135-.159-3.602-.242-5.721-.325-7.84-.249-1.119-.498-2.238-1.217-4.53-1.136-4.702-1.802-8.23-2.468-11.759z"></path><path fill="#339c53" d="M1407.188 477.987c2.114 10.733-4.668 18.922-8.372 27.968-4.273 10.436-9.78 20.368-14.83 31.232-.079.714-.027.762-.479.968-.992.631-1.312 1.183-1.414 1.863 0 0-.131.91-.59 1.612-.989 1.144-1.311 1.705-1.425 2.386l-6.367 11.915c-1.447-3.05-2.327-4.904-3.486-7.947-.886-2.172-1.494-3.155-2.101-4.137 0 0-.044-.918-.107-1.373-5.836-19.39-11.648-38.315-17.353-57.272-1.134-3.77-1.86-7.664-2.778-12.3 2.917-1.023 4.196-2.675 4.672-5.752 4.184 10.416 7.853 21.049 11.404 31.72 3.552 10.678 5.225 22.06 11.868 33.33 5.323-10.609 10.027-19.71 14.478-28.934 4.028-8.346 7.78-16.826 11.652-25.247zM1494.103 614.028c-.36.05-.72.101-2.206-.136-8.718-5.068-16.374-9.748-23.882-14.656-10.888-7.119-11.48-8.985-9-21.37 2.47-12.329 5.244-24.645 6.719-37.104.744-6.285 3.494-9.477 8.652-12.066 7.985-4.006 15.755-8.44 23.615-12.693 1.494-.006 2.989-.012 5.495.656 7.557 10.617 13.996 20.634 20.704 30.467 2.466 3.616 3.427 6.752.986 10.891-4.367 7.404-8.274 15.08-12.359 22.649-5.629 10.431-11.243 20.87-16.864 31.306 0 0 .034.03-.413.228-.99.613-1.323 1.156-1.447 1.828m20.5-53.868-24.865 31.294c-4.809-.791-8.7-1.389-12.573-2.081-3.428-.613-6.387-4.845-12.16-.88l25.768 17.303c3.432-5.483 6.66-10.076 9.305-14.983 5.483-10.174 10.656-20.515 16.784-31.285l-.103-2.152c-.267.86-.533 1.722-2.157 2.784"></path><path fill="#2c3e50" stroke="#2c3e50" stroke-width="1.5" d="M1497.544 515.49a250 250 0 0 1-23.158 13.206c-5.158 2.589-7.908 5.78-8.652 12.066-1.475 12.46-4.249 24.775-6.718 37.104-2.481 12.385-1.889 14.251 9 21.37 7.507 4.908 15.163 9.588 23.343 14.743-3.137 3.344-6.86 1.748-10.696.524-24.273-7.75-31.785-22.567-27.908-44.007.508-2.81.226-5.784.131-8.677-.042-1.299-1.087-2.778-.718-3.844 3.518-10.178 5.055-21.492 13.088-29.38 8.67-8.513 19.36-13.429 32.288-13.106zM1496.64 611.89c4.944-10.354 10.558-20.793 16.187-31.224 4.085-7.57 7.992-15.245 12.359-22.649 2.441-4.139 1.48-7.275-.986-10.89-6.708-9.834-13.147-19.85-19.958-30.42 1.742-3.58 4.066-1.967 5.627-.516 12.215 11.36 22.332 24.15 19.886 42.06-1.134 8.301-3.617 17-7.802 24.166-6.44 11.027-14.79 20.963-25.313 29.473z"></path><path fill="#339c53" d="M1454.535 744.5c-2.91 2.793-5.686 4.555-7.712.542-3.73-7.386-7.256-14.91-10.213-22.626-.732-1.909.297-5.504 1.813-7.064 3.902-4.015 8.432-7.45 12.897-10.876 3.9-2.99 8.052-5.652 12.41-8.68 8.616 6.201 11.402 15.57 16.365 24.084-7.242 9.535-15.893 17.09-25.56 24.62M1404.372 657.4c-12.946-13.076-12.945-10.309-4.483-27.15 1.415-2.816 3.186-5.454 5.477-9.334 4.945 4.714 9.446 8.123 12.694 12.467 1.654 2.211 2.084 6.405 1.274 9.18-2.01 6.888-5.049 13.476-7.964 20.924a552 552 0 0 1-6.998-6.087"></path><path fill="#2c3e50" stroke="#2c3e50" stroke-width="1.5" d="M1298 580.008s.9-.118 1.97-.112c2.055-.607 3.04-1.22 4.025-1.832.823-.084 1.646-.168 3.683-.201 1.61.04 2.006.029 2.402.018 0 0-.082.057.128.5.563 1.01 1.055 1.403 1.686 1.622.09.813.182 1.627.403 3.563.645 1.56 1.161 1.998 1.677 2.436 0 0 .122.884.268 1.807.48 1.526.97 1.949 1.614 2.191 0 0 .139.95.144 2.305 2.078 12.972 3.669 24.702 6.4 36.16 1.687 7.08 2.232 10.84-1.688 13.547-4.492 3.104-9.215 2.869-13.871-.137-8.847-5.71-18.205-10.747-26.475-17.188-4.19-3.263-8.321-8.656-9.185-13.656-1.287-7.452.34-15.408.726-23.15 0 0 .07.047.637.04 1.526-.605 2.484-1.202 3.442-1.8 5.395-1.424 10.79-2.849 17.593-4.259 2.413-.608 3.417-1.231 4.421-1.854z"></path><path fill="#2c3e50" stroke="#2c3e50" stroke-width="1.5" d="M1271.096 587.891c.425 7.732-1.202 15.688.085 23.14.864 5 4.995 10.393 9.185 13.656 8.27 6.44 17.628 11.477 26.475 17.188 4.656 3.006 9.38 3.24 13.871.137 3.92-2.708 3.375-6.467 1.688-13.547-2.731-11.458-4.322-23.188-6.369-35.681 3.669 7.242 7.506 15.28 10.91 23.5 5.207 12.568 10.146 25.25 15.14 37.906 2.957 7.494 1.63 9.64-6.464 9.817-8.315.182-16.642-.18-24.958-.003-4.42.094-7.555-1.492-10.184-5.007-2.772-3.705-5.855-7.206-9.043-10.567-14.407-15.19-28.924-30.276-43.328-45.468-1.718-1.811-2.993-4.044-4.935-6.717 9.112-4.895 18.046-6.825 27.927-8.354zM1401.573 477.639a385 385 0 0 1-11.265 25.627c-4.45 9.224-9.155 18.325-14.478 28.934-6.643-11.27-8.316-22.652-11.868-33.33-3.55-10.671-7.22-21.304-11.383-32.44-2.563-7.964-4.58-15.44-6.593-23.676.004-.759-.009-.854-.009-.854 1.158 1.129 2.818 2.045 3.398 3.418 6.938 16.408 13.68 32.897 20.555 49.33 2.024 4.84 4.307 9.57 7.107 15.753 3.153-4.078 5.584-7.043 7.82-10.149 5.49-7.63 10.892-15.324 16.716-22.613zM1516.035 560.025c-5.3 10.273-10.474 20.614-15.957 30.788-2.645 4.907-5.873 9.5-9.305 14.983l-25.769-17.304c5.774-3.964 8.733.268 12.16.88 3.874.693 7.765 1.29 12.574 2.082 8.13-10.232 16.497-20.763 25.561-31.376.697-.082.736-.053.736-.053z"></path></svg></g></g><defs><clipPath id="SvgjsClipPath1092"><rect width="1000" height="1000" x="0" y="0" rx="500" ry="500"></rect></clipPath></defs></svg>